<svg xmlns="http://www.w3.org/2000/svg" version="1.1" xmlns:xlink="http://www.w3.org/1999/xlink" xmlns:svgjs="http://svgjs.dev/svgjs" width="1500" height="428" viewBox="0 0 1500 428"><g transform="matrix(1,0,0,1,-0.9090909090909918,-1.2286699931743215)"><svg viewBox="0 0 396 113" data-background-color="#ffffff" preserveAspectRatio="xMidYMid meet" height="428" width="1500" xmlns="http://www.w3.org/2000/svg" xmlns:xlink="http://www.w3.org/1999/xlink"><g id="tight-bounds" transform="matrix(1,0,0,1,0.2400000000000091,0.32439184399228793)"><svg viewBox="0 0 395.52 112.35121631201545" height="112.35121631201545" width="395.52"><g><svg viewBox="0 0 499.29958014377905 141.83079271144877" height="112.35121631201545" width="395.52"><g transform="matrix(1,0,0,1,103.77958014377916,19.60179551945494)"><svg viewBox="0 0 395.5199999999999 102.62720167253889" height="102.62720167253889" width="395.5199999999999"><g id="textblocktransform"><svg viewBox="0 0 395.5199999999999 102.62720167253889" height="102.62720167253889" width="395.5199999999999" id="textblock"><g><svg viewBox="0 0 395.5199999999999 63.36031194151096" height="63.36031194151096" width="395.5199999999999"><g transform="matrix(1,0,0,1,0,0)"><svg width="395.5199999999999" viewBox="2.2499999999999996 -37.9 306.47 49.300000000000004" height="63.36031194151096" data-palette-color="#bb84e8"><g class="wordmark-text-0" data-fill-palette-color="primary" id="text-0"><path d="M20-24.85L19.2-21.5Q18.35-21.7 16.85-21.93 15.35-22.15 13.8-22.15L13.8-22.15Q11.55-22.15 10.13-21.25 8.7-20.35 7.9-18.93 7.1-17.5 6.8-15.78 6.5-14.05 6.5-12.4L6.5-12.4Q6.5-9.85 7.15-8.03 7.8-6.2 8.88-5.05 9.95-3.9 11.35-3.38 12.75-2.85 14.3-2.85L14.3-2.85Q15.35-2.85 16.32-2.98 17.3-3.1 18.13-3.28 18.95-3.45 19.7-3.7L19.7-3.7 20.5-0.35Q19.45-0.05 18.55 0.15 17.65 0.35 16.43 0.5 15.2 0.65 13.8 0.65L13.8 0.65Q11.05 0.65 8.9-0.05 6.75-0.75 5.28-2.3 3.8-3.85 3.03-6.35 2.25-8.85 2.25-12.45L2.25-12.45Q2.25-15.95 3.23-18.48 4.2-21 5.8-22.58 7.4-24.15 9.47-24.9 11.55-25.65 13.8-25.65L13.8-25.65Q15-25.65 16.13-25.53 17.25-25.4 18.1-25.25L18.1-25.25Q19.1-25.05 20-24.85L20-24.85ZM28.3-12.45L28.3-12.45Q28.3-7.6 30.47-5.23 32.65-2.85 36.35-2.85L36.35-2.85Q40-2.85 42.05-5.2 44.1-7.55 44.1-12.25L44.1-12.25Q44.1-17.25 41.92-19.7 39.75-22.15 36-22.15L36-22.15Q32.25-22.15 30.27-19.73 28.3-17.3 28.3-12.45ZM24.05-12.5L24.05-12.5Q24.05-16.3 25.25-18.82 26.45-21.35 28.3-22.88 30.15-24.4 32.27-25.03 34.4-25.65 36.3-25.65L36.3-25.65Q38.1-25.65 40.22-25.08 42.35-24.5 44.15-23.03 45.95-21.55 47.15-19.07 48.35-16.6 48.35-12.8L48.35-12.8Q48.35-8.85 47.12-6.25 45.9-3.65 44.05-2.13 42.2-0.6 40.05 0.03 37.9 0.65 36.05 0.65L36.05 0.65Q34.15 0.65 32.05 0.05 29.95-0.55 28.17-2.02 26.4-3.5 25.22-6.05 24.05-8.6 24.05-12.5ZM69.5 0.4L69.2-2.75 69.09-2.75Q68.65-2.4 67.8-1.83 66.95-1.25 65.84-0.7 64.75-0.15 63.42 0.25 62.09 0.65 60.75 0.65L60.75 0.65Q58.9 0.65 57.59 0.18 56.3-0.3 55.5-1.4 54.7-2.5 54.34-4.3 54-6.1 54-8.8L54-8.8 54-25.15 58-25.15 58-9.4Q58-7.9 58.05-6.7 58.09-5.5 58.4-4.65 58.7-3.8 59.37-3.33 60.05-2.85 61.3-2.85L61.3-2.85Q62.59-2.85 64-3.4 65.4-3.95 66.55-4.65L66.55-4.65Q67.9-5.45 69.2-6.45L69.2-6.45 69.2-25.15 73.2-25.15 73.2-3.25Q73.25-1.45 73.45 0L73.45 0 69.5 0.4ZM80.49 0L80.49-21.1Q80.49-22.25 80.24-24.7L80.24-24.7 83.94-25.2 84.34-21.55 84.39-21.55Q85.29-22.7 86.14-23.55 86.99-24.4 87.92-25.03 88.84-25.65 89.69-25.65L89.69-25.65Q90.84-25.7 92.89-25.4L92.89-25.4 91.99-21.55Q90.34-21.85 89.69-21.8L89.69-21.8Q88.84-21.8 87.89-21 86.94-20.2 86.24-19.3L86.24-19.3Q85.34-18.2 84.49-16.8L84.49-16.8 84.49 0 80.49 0ZM111.59-24.6L110.89-21.05Q108.79-21.7 107.16-21.93 105.54-22.15 104.19-22.15L104.19-22.15Q102.44-22.15 101.27-21.3 100.09-20.45 100.09-19.1L100.09-19.1Q100.14-17.9 101.14-17.05 102.14-16.2 103.47-15.53 104.79-14.85 106.41-14.05 108.04-13.25 109.47-12.25 110.89-11.25 111.79-9.85 112.69-8.45 112.74-6.5L112.74-6.5Q112.69-4.4 111.81-3.03 110.94-1.65 109.56-0.83 108.19 0 106.59 0.33 104.99 0.65 103.59 0.65L103.59 0.65Q101.79 0.65 99.86 0.45 97.94 0.25 95.74-0.4L95.74-0.4 96.49-4Q98.74-3.4 100.59-3.13 102.44-2.85 103.64-2.85L103.64-2.85Q104.54-2.85 105.41-3.05 106.29-3.25 106.99-3.63 107.69-4 108.11-4.6 108.54-5.2 108.54-5.95L108.54-5.95Q108.49-7.35 107.59-8.33 106.69-9.3 105.27-10.08 103.84-10.85 102.22-11.63 100.59-12.4 99.16-13.43 97.74-14.45 96.79-15.88 95.84-17.3 95.84-19.4L95.84-19.4Q95.84-20.9 96.61-22.08 97.39-23.25 98.61-24.03 99.84-24.8 101.31-25.23 102.79-25.65 104.19-25.65L104.19-25.65Q105.64-25.65 107.44-25.43 109.24-25.2 111.59-24.6L111.59-24.6ZM135.99-3.95L136.74-0.6Q135.59-0.25 134.36 0 133.14 0.25 131.66 0.45 130.19 0.65 128.59 0.65L128.59 0.65Q126.09 0.65 123.94-0.05 121.79-0.75 120.19-2.3 118.59-3.85 117.66-6.33 116.74-8.8 116.74-12.4L116.74-12.4Q116.74-15.65 117.64-18.13 118.54-20.6 120.11-22.28 121.69-23.95 123.81-24.8 125.94-25.65 128.44-25.65L128.44-25.65Q130.89-25.65 132.69-24.7 134.49-23.75 135.66-22.13 136.84-20.5 137.41-18.32 137.99-16.15 137.99-13.75L137.99-13.75 137.24-11.55 121.09-11.55Q121.09-10 121.49-8.45 121.89-6.9 122.86-5.65 123.84-4.4 125.41-3.63 126.99-2.85 129.34-2.85L129.34-2.85Q130.84-2.85 132.09-3.03 133.34-3.2 134.26-3.43 135.19-3.65 135.99-3.95L135.99-3.95ZM121.24-14.75L133.84-14.75Q133.84-15.1 133.69-16.3 133.54-17.5 132.99-18.8 132.44-20.1 131.29-21.13 130.14-22.15 128.24-22.15L128.24-22.15Q126.14-22.15 124.79-21.28 123.44-20.4 122.64-19.2 121.84-18 121.54-16.75 121.24-15.5 121.24-14.75L121.24-14.75Z" fill="#bb84e8" data-fill-palette-color="primary"></path><path d="M153.09 11.4L153.09-19.35Q153.09-21.15 152.84-24.7L152.84-24.7 156.54-25.2 156.99-22.5Q157.99-23.35 159.06-24.03 160.14-24.7 161.41-25.18 162.69-25.65 164.14-25.65L164.14-25.65Q166.19-25.65 168.01-24.95 169.84-24.25 171.21-22.7 172.59-21.15 173.39-18.68 174.19-16.2 174.19-12.6L174.19-12.6Q174.19-8.95 173.11-6.43 172.04-3.9 170.31-2.33 168.59-0.75 166.41-0.05 164.24 0.65 161.99 0.65L161.99 0.65Q159.59 0.6 157.09 0.05L157.09 0.05 157.09 10.9 153.09 11.4ZM161.99-2.85L161.99-2.85Q164.09-2.85 165.59-3.6 167.09-4.35 168.06-5.68 169.04-7 169.49-8.72 169.94-10.45 169.94-12.4L169.94-12.4Q169.94-14.15 169.61-15.9 169.29-17.65 168.56-19.03 167.84-20.4 166.64-21.28 165.44-22.15 163.69-22.15L163.69-22.15Q162.39-22.15 161.24-21.68 160.09-21.2 159.06-20.53 158.04-19.85 157.09-19L157.09-19 157.09-3.65Q157.64-3.45 158.31-3.28 158.99-3.1 159.91-2.98 160.84-2.85 161.99-2.85ZM180.04 0L180.04-37.45 184.04-37.9 184.04 0 180.04 0ZM205.23-5.85L205.23-11.55Q204.23-11.5 203.33-11.45 202.43-11.4 201.56-11.33 200.68-11.25 199.98-11.15L199.98-11.15Q196.38-10.7 194.88-9.58 193.38-8.45 193.38-6.35L193.38-6.35Q193.38-4.6 194.46-3.73 195.53-2.85 197.28-2.85L197.28-2.85Q199.68-2.85 201.56-3.68 203.43-4.5 205.23-5.85L205.23-5.85ZM205.68 0.4L205.18-2.35Q202.83-1 200.81-0.18 198.78 0.65 196.43 0.65L196.43 0.65Q193.08 0.65 191.11-0.98 189.13-2.6 189.13-6.35L189.13-6.35Q189.13-8.3 190.13-9.75 191.13-11.2 192.76-12.18 194.38-13.15 196.43-13.7 198.48-14.25 200.63-14.4L200.63-14.4Q201.53-14.5 202.98-14.58 204.43-14.65 205.23-14.7L205.23-14.7Q205.23-16.45 205.13-17.82 205.03-19.2 204.53-20.18 204.03-21.15 203.06-21.65 202.08-22.15 200.28-22.15L200.28-22.15Q198.83-22.15 197.48-21.98 196.13-21.8 195.08-21.6L195.08-21.6Q193.83-21.35 192.78-21.05L192.78-21.05 191.98-24.5Q193.23-24.8 194.68-25.05L194.68-25.05Q195.93-25.3 197.58-25.48 199.23-25.65 201.13-25.65L201.13-25.65Q203.68-25.65 205.26-24.9 206.83-24.15 207.71-22.88 208.58-21.6 208.91-19.98 209.23-18.35 209.23-16.55L209.23-16.55 209.23-4.55Q209.23-3.85 209.26-3.08 209.28-2.3 209.36-1.55 209.43-0.8 209.53 0L209.53 0 205.68 0.4ZM216.33 0L216.33-20.15Q216.38-21.2 216.08-24.7L216.08-24.7 219.78-25.2 220.33-22Q221.83-23 223.31-23.75 224.78-24.5 226.33-25.08 227.88-25.65 229.33-25.65L229.33-25.65Q231.38-25.65 232.76-25.18 234.13-24.7 234.98-23.6 235.83-22.5 236.21-20.7 236.58-18.9 236.58-16.2L236.58-16.2 236.58 0 232.58 0 232.58-15.75Q232.58-17.25 232.53-18.43 232.48-19.6 232.11-20.43 231.73-21.25 230.96-21.7 230.18-22.15 228.78-22.15L228.78-22.15Q227.48-22.15 226.03-21.58 224.58-21 223.18-20.25 221.78-19.5 220.33-18.5L220.33-18.5 220.33 0 216.33 0ZM243.68 0L243.68-20.15Q243.73-21.2 243.43-24.7L243.43-24.7 247.13-25.2 247.68-22Q249.18-23 250.65-23.75 252.13-24.5 253.68-25.08 255.23-25.65 256.68-25.65L256.68-25.65Q258.73-25.65 260.1-25.18 261.48-24.7 262.33-23.6 263.18-22.5 263.55-20.7 263.93-18.9 263.93-16.2L263.93-16.2 263.93 0 259.93 0 259.93-15.75Q259.93-17.25 259.88-18.43 259.83-19.6 259.45-20.43 259.08-21.25 258.3-21.7 257.53-22.15 256.13-22.15L256.13-22.15Q254.83-22.15 253.38-21.58 251.93-21 250.53-20.25 249.13-19.5 247.68-18.5L247.68-18.5 247.68 0 243.68 0ZM288.83-3.95L289.58-0.6Q288.43-0.25 287.2 0 285.98 0.25 284.5 0.45 283.03 0.65 281.43 0.65L281.43 0.65Q278.93 0.65 276.78-0.05 274.63-0.75 273.03-2.3 271.43-3.85 270.5-6.33 269.58-8.8 269.58-12.4L269.58-12.4Q269.58-15.65 270.48-18.13 271.38-20.6 272.95-22.28 274.53-23.95 276.65-24.8 278.78-25.65 281.28-25.65L281.28-25.65Q283.73-25.65 285.53-24.7 287.33-23.75 288.5-22.13 289.68-20.5 290.25-18.32 290.83-16.15 290.83-13.75L290.83-13.75 290.08-11.55 273.93-11.55Q273.93-10 274.33-8.45 274.73-6.9 275.7-5.65 276.68-4.4 278.25-3.63 279.83-2.85 282.18-2.85L282.18-2.85Q283.68-2.85 284.93-3.03 286.18-3.2 287.1-3.43 288.03-3.65 288.83-3.95L288.83-3.95ZM274.08-14.75L286.68-14.75Q286.68-15.1 286.53-16.3 286.38-17.5 285.83-18.8 285.28-20.1 284.13-21.13 282.98-22.15 281.08-22.15L281.08-22.15Q278.98-22.15 277.63-21.28 276.28-20.4 275.48-19.2 274.68-18 274.38-16.75 274.08-15.5 274.08-14.75L274.08-14.75ZM296.32 0L296.32-21.1Q296.32-22.25 296.07-24.7L296.07-24.7 299.77-25.2 300.17-21.55 300.22-21.55Q301.12-22.7 301.97-23.55 302.82-24.4 303.75-25.03 304.67-25.65 305.52-25.65L305.52-25.65Q306.67-25.7 308.72-25.4L308.72-25.4 307.82-21.55Q306.17-21.85 305.52-21.8L305.52-21.8Q304.67-21.8 303.72-21 302.77-20.2 302.07-19.3L302.07-19.3Q301.17-18.2 300.32-16.8L300.32-16.8 300.32 0 296.32 0Z" fill="#35185a" data-fill-palette-color="secondary"></path></g></svg></g></svg></g><g transform="matrix(1,0,0,1,0,78.3181609434151)"><svg viewBox="0 0 232.20979199999994 24.30904072912379" height="24.30904072912379" width="232.20979199999994"><g transform="matrix(1,0,0,1,0,0)"><svg width="232.20979199999994" viewBox="1.9 -31.69 305.460416666664 31.98" height="24.30904072912379" data-palette-color="#35185a"><path d="M16.75-15.41L16.75-15.41 13.67-15.41Q13.77-16.26 13.76-17.36 13.75-18.46 13.75-19.07L13.75-19.07Q13.72-20.36 12.73-20.85 11.74-21.34 9.5-21.34L9.5-21.34Q7.2-21.34 6.23-20.85 5.25-20.36 5.22-19.07L5.22-19.07Q5.05-15.23 5.05-11.93 5.05-8.62 5.22-4.81L5.22-4.81Q5.25-3.47 6.23-2.95 7.2-2.44 9.47-2.44L9.47-2.44Q11.72-2.44 12.72-2.95 13.72-3.47 13.75-4.81L13.75-4.81Q13.75-5.47 13.76-6.41 13.77-7.35 13.67-8.47L13.67-8.47 16.75-8.47Q16.87-7.76 16.86-6.82 16.85-5.88 16.8-5.13L16.8-5.13Q16.65-2.25 15-0.98 13.35 0.29 9.47 0.29L9.47 0.29Q5.57 0.29 3.87-0.98 2.17-2.25 2.05-5.13L2.05-5.13Q1.95-6.93 1.92-9.38 1.88-11.82 1.92-14.28 1.95-16.75 2.05-18.58L2.05-18.58Q2.17-21.53 3.89-22.8 5.62-24.07 9.5-24.07L9.5-24.07Q13.35-24.07 15.05-22.83 16.75-21.58 16.8-18.73L16.8-18.73Q16.85-17.99 16.86-17.05 16.87-16.11 16.75-15.41ZM23.9-19.19L23.9 0 20.75 0 20.75-31.69 23.9-31.69 23.9-21.53 24.66-21.53Q25.51-22.83 26.65-23.45 27.78-24.07 29.76-24.07L29.76-24.07Q32.52-24.07 33.86-22.86 35.2-21.66 35.2-18.82L35.2-18.82 35.2 0 32.08 0 32.08-19.09Q32.08-20.31 31.31-20.86 30.54-21.41 28.83-21.41L28.83-21.41Q25.17-21.41 23.9-19.19L23.9-19.19ZM46.85 0.29L46.85 0.29Q42.87 0.29 41.23-1.07 39.59-2.44 39.47-5.62L39.47-5.62Q39.33-7.42 39.28-9.63 39.23-11.84 39.28-14.09 39.33-16.33 39.47-18.16L39.47-18.16Q39.59-21.34 41.24-22.71 42.89-24.07 46.85-24.07L46.85-24.07Q50.85-24.07 52.45-22.71 54.05-21.34 54.17-18.16L54.17-18.16Q54.32-16.36 54.37-14.15 54.41-11.94 54.37-9.7 54.32-7.47 54.17-5.62L54.17-5.62Q54.05-2.47 52.45-1.09 50.85 0.29 46.85 0.29ZM46.85-2.44L46.85-2.44Q49.09-2.44 50.04-2.99 51-3.54 51.07-4.81L51.07-4.81Q51.31-8.62 51.31-11.89 51.31-15.16 51.07-18.97L51.07-18.97Q51-20.26 50.07-20.8 49.14-21.34 46.85-21.34L46.85-21.34Q44.55-21.34 43.61-20.8 42.67-20.26 42.6-18.97L42.6-18.97Q42.38-15.16 42.37-11.88 42.35-8.59 42.6-4.81L42.6-4.81Q42.65-3.54 43.64-2.99 44.62-2.44 46.85-2.44ZM65.79 0.29L65.79 0.29Q61.81 0.29 60.17-1.07 58.54-2.44 58.42-5.62L58.42-5.62Q58.27-7.42 58.22-9.63 58.17-11.84 58.22-14.09 58.27-16.33 58.42-18.16L58.42-18.16Q58.54-21.34 60.19-22.71 61.83-24.07 65.79-24.07L65.79-24.07Q69.79-24.07 71.39-22.71 72.99-21.34 73.11-18.16L73.11-18.16Q73.26-16.36 73.31-14.15 73.36-11.94 73.31-9.7 73.26-7.47 73.11-5.62L73.11-5.62Q72.99-2.47 71.39-1.09 69.79 0.29 65.79 0.29ZM65.79-2.44L65.79-2.44Q68.03-2.44 68.99-2.99 69.94-3.54 70.01-4.81L70.01-4.81Q70.26-8.62 70.26-11.89 70.26-15.16 70.01-18.97L70.01-18.97Q69.94-20.26 69.01-20.8 68.08-21.34 65.79-21.34L65.79-21.34Q63.49-21.34 62.55-20.8 61.61-20.26 61.54-18.97L61.54-18.97Q61.32-15.16 61.31-11.88 61.3-8.59 61.54-4.81L61.54-4.81Q61.59-3.54 62.58-2.99 63.57-2.44 65.79-2.44ZM84.07 0.29L84.07 0.29Q80.14 0.29 78.62-0.98 77.09-2.25 76.97-5.13L76.97-5.13Q76.92-5.88 76.91-6.82 76.89-7.76 76.99-8.47L76.99-8.47 79.85-8.47Q79.8-7.35 79.81-6.41 79.82-5.47 79.85-4.81L79.85-4.81Q79.87-3.47 80.79-2.95 81.7-2.44 84.07-2.44L84.07-2.44Q86.49-2.44 87.48-2.95 88.47-3.47 88.54-4.81L88.54-4.81Q88.61-5.64 88.64-6.04 88.66-6.45 88.64-7.2L88.64-7.2Q88.56-8.45 87.98-9.13 87.39-9.81 85.44-10.11L85.44-10.11 82.58-10.77Q80.39-11.23 79.19-11.94 77.99-12.65 77.5-13.78 77.02-14.92 76.92-16.65L76.92-16.65Q76.85-17.53 77.04-18.58L77.04-18.58Q77.09-21.53 78.64-22.8 80.19-24.07 84.29-24.07L84.29-24.07Q88.22-24.07 89.75-22.83 91.27-21.58 91.42-18.73L91.42-18.73Q91.42-17.99 91.41-17.05 91.4-16.11 91.32-15.41L91.32-15.41 88.37-15.41Q88.49-16.26 88.48-17.36 88.47-18.46 88.42-19.07L88.42-19.07Q88.39-20.36 87.53-20.85 86.66-21.34 84.29-21.34L84.29-21.34Q81.9-21.34 81.03-20.85 80.17-20.36 80.07-19.07L80.07-19.07Q80.04-18.46 79.99-18.05 79.95-17.65 79.97-16.94L79.97-16.94Q80.04-16.09 80.23-15.43 80.41-14.77 81.06-14.34 81.7-13.92 83.17-13.7L83.17-13.7 85.9-13.13Q88.88-12.52 90.25-11.24 91.62-9.96 91.62-7.37L91.62-7.37Q91.62-6.84 91.6-6.23 91.59-5.62 91.54-5.05L91.54-5.05Q91.37-2.2 89.75-0.95 88.12 0.29 84.07 0.29ZM102.82 0.29L102.82 0.29Q98.79 0.29 97.07-0.98 95.35-2.25 95.23-5.13L95.23-5.13Q95.13-6.93 95.09-9.38 95.06-11.82 95.09-14.28 95.13-16.75 95.23-18.58L95.23-18.58Q95.35-21.53 97.12-22.8 98.89-24.07 102.82-24.07L102.82-24.07Q106.53-24.07 108.19-22.83 109.85-21.58 110.02-18.73L110.02-18.73Q110.07-17.87 110.12-15.75 110.17-13.62 109.97-11.23L109.97-11.23 98.28-11.23Q98.28-9.69 98.3-8.11 98.33-6.52 98.4-4.81L98.4-4.81Q98.43-3.47 99.43-2.95 100.43-2.44 102.72-2.44L102.72-2.44Q104.99-2.44 105.92-2.95 106.85-3.47 106.95-4.81L106.95-4.81Q107.02-6.15 106.95-8.47L106.95-8.47 109.97-8.47Q110.09-7.76 110.08-6.82 110.07-5.88 110.02-5.13L110.02-5.13Q109.85-2.25 108.28-0.98 106.7 0.29 102.82 0.29ZM98.28-13.82L98.28-13.82 106.99-13.82Q107.04-15.48 107.04-16.99 107.04-18.51 106.95-19.07L106.95-19.07Q106.85-20.29 105.9-20.81 104.94-21.34 102.82-21.34L102.82-21.34Q100.45-21.34 99.44-20.81 98.43-20.29 98.4-19.07L98.4-19.07Q98.33-17.65 98.29-16.36 98.25-15.06 98.28-13.82ZM132.89 0.29L132.89 0.29Q130.89 0.29 129.72-0.34 128.55-0.98 127.67-2.25L127.67-2.25 127.06-2.25 127.06 0 123.91 0 123.91-31.69 127.06-31.69 127.06-21.53 127.81-21.53Q128.69-22.83 129.85-23.45 131.01-24.07 133.04-24.07L133.04-24.07Q135.85-24.07 137.15-22.86 138.46-21.66 138.53-18.82L138.53-18.82Q138.63-16.67 138.65-14.21 138.68-11.74 138.65-9.35 138.63-6.96 138.53-4.96L138.53-4.96Q138.46-2.15 137.08-0.93 135.7 0.29 132.89 0.29ZM132.11-2.37L132.11-2.37Q133.84-2.37 134.6-2.93 135.36-3.49 135.41-4.69L135.41-4.69Q135.58-7.89 135.58-11.66 135.58-15.43 135.41-19.09L135.41-19.09Q135.36-20.31 134.6-20.86 133.84-21.41 132.11-21.41L132.11-21.41Q128.33-21.41 127.06-19.19L127.06-19.19 127.06-4.59Q128.35-2.37 132.11-2.37ZM150.2 0.29L150.2 0.29Q146.17 0.29 144.45-0.98 142.73-2.25 142.61-5.13L142.61-5.13Q142.51-6.93 142.47-9.38 142.44-11.82 142.47-14.28 142.51-16.75 142.61-18.58L142.61-18.58Q142.73-21.53 144.5-22.8 146.27-24.07 150.2-24.07L150.2-24.07Q153.91-24.07 155.57-22.83 157.23-21.58 157.4-18.73L157.4-18.73Q157.45-17.87 157.5-15.75 157.55-13.62 157.35-11.23L157.35-11.23 145.66-11.23Q145.66-9.69 145.68-8.11 145.71-6.52 145.78-4.81L145.78-4.81Q145.81-3.47 146.81-2.95 147.81-2.44 150.1-2.44L150.1-2.44Q152.37-2.44 153.3-2.95 154.23-3.47 154.33-4.81L154.33-4.81Q154.4-6.15 154.33-8.47L154.33-8.47 157.35-8.47Q157.48-7.76 157.46-6.82 157.45-5.88 157.4-5.13L157.4-5.13Q157.23-2.25 155.66-0.98 154.08 0.29 150.2 0.29ZM145.66-13.82L145.66-13.82 154.37-13.82Q154.42-15.48 154.42-16.99 154.42-18.51 154.33-19.07L154.33-19.07Q154.23-20.29 153.28-20.81 152.32-21.34 150.2-21.34L150.2-21.34Q147.83-21.34 146.82-20.81 145.81-20.29 145.78-19.07L145.78-19.07Q145.71-17.65 145.67-16.36 145.63-15.06 145.66-13.82ZM168.04 0.29L168.04 0.29Q164.11 0.29 162.59-0.98 161.06-2.25 160.94-5.13L160.94-5.13Q160.89-5.88 160.88-6.82 160.87-7.76 160.96-8.47L160.96-8.47 163.82-8.47Q163.77-7.35 163.78-6.41 163.8-5.47 163.82-4.81L163.82-4.81Q163.84-3.47 164.76-2.95 165.68-2.44 168.04-2.44L168.04-2.44Q170.46-2.44 171.45-2.95 172.44-3.47 172.51-4.81L172.51-4.81Q172.58-5.64 172.61-6.04 172.63-6.45 172.61-7.2L172.61-7.2Q172.54-8.45 171.95-9.13 171.36-9.81 169.41-10.11L169.41-10.11 166.55-10.77Q164.36-11.23 163.16-11.94 161.96-12.65 161.48-13.78 160.99-14.92 160.89-16.65L160.89-16.65Q160.82-17.53 161.01-18.58L161.01-18.58Q161.06-21.53 162.61-22.8 164.16-24.07 168.26-24.07L168.26-24.07Q172.19-24.07 173.72-22.83 175.25-21.58 175.39-18.73L175.39-18.73Q175.39-17.99 175.38-17.05 175.37-16.11 175.29-15.41L175.29-15.41 172.34-15.41Q172.46-16.26 172.45-17.36 172.44-18.46 172.39-19.07L172.39-19.07Q172.37-20.36 171.5-20.85 170.63-21.34 168.26-21.34L168.26-21.34Q165.87-21.34 165-20.85 164.14-20.36 164.04-19.07L164.04-19.07Q164.02-18.46 163.97-18.05 163.92-17.65 163.94-16.94L163.94-16.94Q164.02-16.09 164.2-15.43 164.38-14.77 165.03-14.34 165.68-13.92 167.14-13.7L167.14-13.7 169.87-13.13Q172.85-12.52 174.22-11.24 175.59-9.96 175.59-7.37L175.59-7.37Q175.59-6.84 175.58-6.23 175.56-5.62 175.51-5.05L175.51-5.05Q175.34-2.2 173.72-0.95 172.1 0.29 168.04 0.29ZM186.94 0.29L186.94 0.29Q183.13 0.29 181.8-0.98 180.47-2.25 180.47-5.13L180.47-5.13 180.47-21.02 178.12-21.02 178.12-23.75 180.54-23.75 180.54-30.49 183.64-30.49 183.64-23.75 189.01-23.75 189.01-21.02 183.62-21.02 183.62-4.79Q183.62-3.44 184.18-2.93 184.74-2.42 187.01-2.42L187.01-2.42Q187.94-2.42 188.44-2.45 188.94-2.49 189.6-2.51L189.6-2.51 189.6 0.1Q189.01 0.2 188.33 0.24 187.65 0.29 186.94 0.29ZM216.38-15.41L216.38-15.41 213.3-15.41Q213.4-16.26 213.39-17.36 213.37-18.46 213.37-19.07L213.37-19.07Q213.35-20.36 212.36-20.85 211.37-21.34 209.13-21.34L209.13-21.34Q206.83-21.34 205.85-20.85 204.88-20.36 204.85-19.07L204.85-19.07Q204.68-15.23 204.68-11.93 204.68-8.62 204.85-4.81L204.85-4.81Q204.88-3.47 205.85-2.95 206.83-2.44 209.1-2.44L209.1-2.44Q211.35-2.44 212.35-2.95 213.35-3.47 213.37-4.81L213.37-4.81Q213.37-5.47 213.39-6.41 213.4-7.35 213.3-8.47L213.3-8.47 216.38-8.47Q216.5-7.76 216.49-6.82 216.47-5.88 216.43-5.13L216.43-5.13Q216.28-2.25 214.63-0.98 212.98 0.29 209.1 0.29L209.1 0.29Q205.19 0.29 203.5-0.98 201.8-2.25 201.68-5.13L201.68-5.13Q201.58-6.93 201.54-9.38 201.51-11.82 201.54-14.28 201.58-16.75 201.68-18.58L201.68-18.58Q201.8-21.53 203.52-22.8 205.24-24.07 209.13-24.07L209.13-24.07Q212.98-24.07 214.68-22.83 216.38-21.58 216.43-18.73L216.43-18.73Q216.47-17.99 216.49-17.05 216.5-16.11 216.38-15.41ZM227.58 0.29L227.58 0.29Q223.6 0.29 221.96-1.07 220.33-2.44 220.21-5.62L220.21-5.62Q220.06-7.42 220.01-9.63 219.96-11.84 220.01-14.09 220.06-16.33 220.21-18.16L220.21-18.16Q220.33-21.34 221.98-22.71 223.62-24.07 227.58-24.07L227.58-24.07Q231.58-24.07 233.18-22.71 234.78-21.34 234.9-18.16L234.9-18.16Q235.05-16.36 235.1-14.15 235.15-11.94 235.1-9.7 235.05-7.47 234.9-5.62L234.9-5.62Q234.78-2.47 233.18-1.09 231.58 0.29 227.58 0.29ZM227.58-2.44L227.58-2.44Q229.83-2.44 230.78-2.99 231.73-3.54 231.8-4.81L231.8-4.81Q232.05-8.62 232.05-11.89 232.05-15.16 231.8-18.97L231.8-18.97Q231.73-20.26 230.8-20.8 229.87-21.34 227.58-21.34L227.58-21.34Q225.28-21.34 224.34-20.8 223.41-20.26 223.33-18.97L223.33-18.97Q223.11-15.16 223.1-11.88 223.09-8.59 223.33-4.81L223.33-4.81Q223.38-3.54 224.37-2.99 225.36-2.44 227.58-2.44ZM244.67 0.29L244.67 0.29Q241.93 0.29 240.55-0.93 239.17-2.15 239.17-4.96L239.17-4.96 239.17-23.75 242.3-23.75 242.3-4.69Q242.3-3.49 243.06-2.93 243.81-2.37 245.52-2.37L245.52-2.37Q247.26-2.37 248.56-2.95 249.87-3.54 250.48-4.59L250.48-4.59 250.48-23.75 253.65-23.75 253.65 0 250.48 0 250.48-2.25 249.82-2.25Q248.21 0.29 244.67 0.29ZM261.44-19.19L261.44 0 258.29 0 258.29-23.75 261.44-23.75 261.44-21.53 262.12-21.53Q262.76-22.75 263.81-23.41 264.86-24.07 266.42-24.07L266.42-24.07Q268.76-24.07 269.9-22.84 271.03-21.61 271.03-18.58L271.03-18.58Q271.03-17.92 270.98-17.02 270.93-16.11 270.84-15.41L270.84-15.41 267.81-15.41Q267.86-15.65 267.87-16.26 267.88-16.87 267.89-17.48 267.91-18.09 267.91-18.31L267.91-18.31Q267.91-20.12 267.3-20.76 266.69-21.41 265.34-21.41L265.34-21.41Q262.49-21.41 261.44-19.19L261.44-19.19ZM281.31 0.29L281.31 0.29Q277.38 0.29 275.85-0.98 274.33-2.25 274.2-5.13L274.2-5.13Q274.15-5.88 274.14-6.82 274.13-7.76 274.23-8.47L274.23-8.47 277.08-8.47Q277.04-7.35 277.05-6.41 277.06-5.47 277.08-4.81L277.08-4.81Q277.11-3.47 278.02-2.95 278.94-2.44 281.31-2.44L281.31-2.44Q283.72-2.44 284.71-2.95 285.7-3.47 285.78-4.81L285.78-4.81Q285.85-5.64 285.87-6.04 285.9-6.45 285.87-7.2L285.87-7.2Q285.8-8.45 285.21-9.13 284.63-9.81 282.67-10.11L282.67-10.11 279.82-10.77Q277.62-11.23 276.42-11.94 275.23-12.65 274.74-13.78 274.25-14.92 274.15-16.65L274.15-16.65Q274.08-17.53 274.28-18.58L274.28-18.58Q274.33-21.53 275.88-22.8 277.43-24.07 281.53-24.07L281.53-24.07Q285.46-24.07 286.98-22.83 288.51-21.58 288.66-18.73L288.66-18.73Q288.66-17.99 288.64-17.05 288.63-16.11 288.56-15.41L288.56-15.41 285.6-15.41Q285.73-16.26 285.71-17.36 285.7-18.46 285.65-19.07L285.65-19.07Q285.63-20.36 284.76-20.85 283.9-21.34 281.53-21.34L281.53-21.34Q279.13-21.34 278.27-20.85 277.4-20.36 277.3-19.07L277.3-19.07Q277.28-18.46 277.23-18.05 277.18-17.65 277.21-16.94L277.21-16.94Q277.28-16.09 277.46-15.43 277.65-14.77 278.29-14.34 278.94-13.92 280.4-13.7L280.4-13.7 283.14-13.13Q286.12-12.52 287.48-11.24 288.85-9.96 288.85-7.37L288.85-7.37Q288.85-6.84 288.84-6.23 288.83-5.62 288.78-5.05L288.78-5.05Q288.61-2.2 286.98-0.95 285.36 0.29 281.31 0.29ZM300.06 0.29L300.06 0.29Q296.03 0.29 294.31-0.98 292.58-2.25 292.46-5.13L292.46-5.13Q292.36-6.93 292.33-9.38 292.29-11.82 292.33-14.28 292.36-16.75 292.46-18.58L292.46-18.58Q292.58-21.53 294.35-22.8 296.12-24.07 300.06-24.07L300.06-24.07Q303.77-24.07 305.43-22.83 307.09-21.58 307.26-18.73L307.26-18.73Q307.31-17.87 307.35-15.75 307.4-13.62 307.21-11.23L307.21-11.23 295.51-11.23Q295.51-9.69 295.54-8.11 295.56-6.52 295.64-4.81L295.64-4.81Q295.66-3.47 296.66-2.95 297.66-2.44 299.96-2.44L299.96-2.44Q302.23-2.44 303.16-2.95 304.08-3.47 304.18-4.81L304.18-4.81Q304.25-6.15 304.18-8.47L304.18-8.47 307.21-8.47Q307.33-7.76 307.32-6.82 307.31-5.88 307.26-5.13L307.26-5.13Q307.09-2.25 305.51-0.98 303.94 0.29 300.06 0.29ZM295.51-13.82L295.51-13.82 304.23-13.82Q304.28-15.48 304.28-16.99 304.28-18.51 304.18-19.07L304.18-19.07Q304.08-20.29 303.13-20.81 302.18-21.34 300.06-21.34L300.06-21.34Q297.69-21.34 296.67-20.81 295.66-20.29 295.64-19.07L295.64-19.07Q295.56-17.65 295.53-16.36 295.49-15.06 295.51-13.82Z" opacity="1" transform="matrix(1,0,0,1,0,0)" fill="#35185a" class="slogan-text-1" data-fill-palette-color="secondary" id="text-1"></path></svg></g></svg></g></svg></g></svg></g><g><svg viewBox="0 0 88.82173114187502 141.83079271144877" height="141.83079271144877" width="88.82173114187502"><g><svg xmlns="http://www.w3.org/2000/svg" xmlns:xlink="http://www.w3.org/1999/xlink" version="1.1" x="0" y="0" viewBox="21.8 5.1 56.3 89.9" style="enable-background:new 0 0 100 100;" xml:space="preserve" height="141.83079271144877" width="88.82173114187502" class="icon-icon-0" data-fill-palette-color="accent" id="icon-0"><path d="M72.6 5.1H27.4C24.3 5.1 21.8 7.6 21.8 10.7V89.4C21.8 92.5 24.3 95 27.4 95H57L78.1 73.9V10.7C78.1 7.6 75.6 5.1 72.6 5.1M41.1 23H70C70.8 23 71.5 23.7 71.5 24.5S70.8 26 70 26H41.1C40.3 26 39.6 25.3 39.6 24.5 39.6 23.6 40.2 23 41.1 23M39.6 38.4C39.6 37.6 40.3 36.9 41.1 36.9H70C70.8 36.9 71.5 37.6 71.5 38.4S70.8 39.9 70 39.9H41.1C40.2 39.9 39.6 39.2 39.6 38.4M34.2 54.2C34.3 54.3 34.3 54.5 34.2 54.6S33.9 54.7 33.8 54.6L31.9 52.7 30 54.6C29.9 54.7 29.7 54.7 29.6 54.6S29.5 54.3 29.6 54.2L31.5 52.3 29.6 50.4C29.5 50.3 29.5 50.1 29.6 50S29.9 49.9 30 50L31.9 51.9 33.8 50C33.9 49.9 34.1 49.9 34.2 50S34.3 50.3 34.2 50.4L32.3 52.3zM34.2 40.3C34.3 40.4 34.3 40.6 34.2 40.7S33.9 40.8 33.8 40.7L31.9 38.8 30 40.7C29.9 40.8 29.7 40.8 29.6 40.7S29.5 40.4 29.6 40.3L31.5 38.4 29.6 36.5C29.5 36.4 29.5 36.2 29.6 36.1S29.9 36 30 36.1L31.9 38 33.8 36.1C33.9 36 34.1 36 34.2 36.1S34.3 36.4 34.2 36.5L32.3 38.4zM34.2 26C34.3 26.1 34.3 26.3 34.2 26.4S33.9 26.5 33.8 26.4L31.9 24.5 30 26.4C29.9 26.5 29.7 26.5 29.6 26.4S29.5 26.1 29.6 26L31.5 24.1 29.6 22.2C29.5 22.1 29.5 21.9 29.6 21.8S29.9 21.7 30 21.8L31.9 23.7 33.8 21.8C33.9 21.7 34.1 21.7 34.2 21.8S34.3 22.1 34.2 22.2L32.3 24.1zM39.6 52.3C39.6 51.5 40.3 50.8 41.1 50.8H70C70.8 50.8 71.5 51.5 71.5 52.3S70.8 53.8 70 53.8H41.1C40.2 53.8 39.6 53.1 39.6 52.3M55.4 92.7V77.2C55.4 74.1 57.9 71.6 61 71.6H76.5z" fill="#35185a" data-fill-palette-color="accent"></path></svg></g></svg></g></svg></g><defs></defs></svg><rect width="395.52" height="112.35121631201545" fill="none" stroke="none" visibility="hidden"></rect></g></svg></g></svg>